<?xml version="1.0" standalone="no"?>
<!DOCTYPE svg PUBLIC "-//W3C//DTD SVG 20010904//EN"
 "http://www.w3.org/TR/2001/REC-SVG-20010904/DTD/svg10.dtd">
<svg version="1.0" xmlns="http://www.w3.org/2000/svg"
 width="600.000000pt" height="150.000000pt" viewBox="0 0 600.000000 150.000000"
 preserveAspectRatio="xMidYMid meet">

<g transform="translate(0.000000,150.000000) scale(0.100000,-0.100000)"
fill="#000000" stroke="none">
<path d="M1500 1079 c-69 -55 -164 -131 -212 -168 l-86 -69 -31 63 c-36 72
-90 132 -153 168 -76 45 -146 57 -335 57 l-173 0 0 -386 0 -385 208 3 208 3
66 33 c80 39 158 120 184 189 10 27 19 50 20 52 2 2 96 -70 210 -159 114 -89
213 -164 220 -167 7 -2 109 70 226 162 l213 167 3 -141 3 -141 249 0 250 0 0
75 0 75 -165 0 -165 0 0 310 0 310 -85 0 -85 0 0 -144 0 -145 -206 -161 c-139
-108 -211 -159 -222 -155 -10 3 -32 18 -50 33 l-34 28 206 159 c113 88 205
163 206 166 0 3 -27 27 -60 52 l-60 47 -205 -161 c-144 -111 -211 -158 -223
-154 -9 3 -32 18 -50 34 l-32 28 205 159 c113 87 205 162 205 166 0 7 -115 99
-122 97 -2 0 -59 -45 -128 -100z m-591 -129 c113 -57 155 -200 94 -321 -18
-35 -43 -64 -71 -84 -39 -27 -52 -30 -142 -33 l-100 -4 0 231 0 231 90 0 c70
0 99 -4 129 -20z"/>
<path d="M5114 1129 c-62 -15 -144 -69 -184 -121 -52 -69 -71 -129 -77 -239
-10 -184 55 -317 190 -386 74 -38 207 -44 289 -14 73 28 131 90 152 162 17 57
12 73 -24 67 -17 -2 -27 -16 -42 -55 -72 -195 -366 -189 -462 10 -34 70 -49
168 -37 250 25 177 129 277 286 277 114 -1 189 -49 216 -140 11 -36 15 -40 46
-40 38 0 38 1 16 65 -21 63 -85 127 -149 149 -61 21 -165 28 -220 15z"/>
<path d="M2627 1123 c-4 -3 -7 -177 -7 -385 l0 -378 250 0 250 0 0 75 0 75
-160 0 -160 0 0 310 0 310 -83 0 c-46 0 -87 -3 -90 -7z"/>
<path d="M3307 1124 c-4 -4 -7 -178 -7 -386 l0 -378 245 0 245 0 0 25 0 25
-212 2 -213 3 0 150 0 150 200 5 c198 5 200 5 203 28 l3 22 -193 0 c-106 0
-199 4 -206 8 -9 7 -12 43 -10 148 l3 139 210 5 210 5 0 25 0 25 -236 3 c-129
1 -238 -1 -242 -4z"/>
<path d="M3941 1116 c-8 -9 -11 -118 -9 -382 l3 -369 33 -3 32 -3 0 327 c0
191 4 324 9 318 5 -5 70 -151 144 -324 l136 -315 37 0 38 0 137 318 c75 175
139 320 143 324 3 3 6 -141 6 -321 l0 -327 33 3 32 3 0 380 0 380 -42 3 c-35
3 -44 -1 -56 -20 -8 -13 -75 -166 -148 -340 -74 -175 -138 -316 -143 -315 -7
2 -296 660 -296 675 0 9 -80 -1 -89 -12z"/>
</g>
</svg>
